<?xml version="1.0" encoding="UTF-8" standalone="no"?>
<svg width="78px" height="27px" viewBox="0 0 78 27" version="1.1" xmlns="http://www.w3.org/2000/svg"
>
  <!-- Generator: Sketch 39 (31667) - http://www.bohemiancoding.com/sketch -->
  <title>iFish</title>
  <desc>Created with Sketch.</desc>
  <defs></defs>
  <g id="Page-1" stroke="none" stroke-width="1" fill="none" fill-rule="evenodd">
    <g id="搜索结果-2-" transform="translate(-32.000000, -28.000000)">
      <g id="head">
        <g id="iFish" transform="translate(32.000000, 28.000000)">
          <path
            d="M12.1835938,26 L12.1835938,15.0136719 L23.4160156,15.0136719 L23.4160156,12.2011719 L12.1835938,12.2011719 L12.1835938,3.48242188 L24.4179688,3.48242188 L24.4179688,0.634765625 L9.01953125,0.634765625 L9.01953125,26 L12.1835938,26 Z M31.1855469,26 L31.1855469,0.634765625 L28.0214844,0.634765625 L28.0214844,26 L31.1855469,26 Z M34.8945312,19.0214844 C35.1933594,23.5039062 38.9199219,26.421875 44.2988281,26.421875 C50.1347656,26.421875 53.7910156,23.5214844 53.7910156,18.8808594 C53.7910156,15.2421875 51.6640625,13.2207031 46.4082031,11.9023438 L43.7539062,11.1992188 C40.3085938,10.3027344 38.9023438,9.16015625 38.9023438,7.24414063 C38.9023438,4.765625 41.1875,3.06054688 44.4746094,3.06054688 C47.7792969,3.06054688 49.9765625,4.73046875 50.2578125,7.45507812 L53.421875,7.45507812 C53.28125,3.20117188 49.625,0.212890625 44.5800781,0.212890625 C39.3066406,0.212890625 35.6152344,3.16601562 35.6152344,7.38476562 C35.6152344,10.8300781 37.6894531,12.8867188 42.3652344,14.0820312 L45.6171875,14.9257812 C49.0273438,15.8046875 50.5214844,17.1230469 50.5214844,19.2675781 C50.5214844,21.7636719 48.0253906,23.5742188 44.5976562,23.5742188 C40.9765625,23.5742188 38.375,21.7636719 38.0761719,19.0214844 L34.8945312,19.0214844 Z M77.7324219,26 L77.7324219,0.634765625 L74.5683594,0.634765625 L74.5683594,11.6035156 L60.6464844,11.6035156 L60.6464844,0.634765625 L57.4824219,0.634765625 L57.4824219,26 L60.6464844,26 L60.6464844,14.4511719 L74.5683594,14.4511719 L74.5683594,26 L77.7324219,26 Z"
            id="FISH" fill="#1CB6B1"></path>
          <g id="i" fill="#3169A9">
            <polygon id="Path" points="1.25 26 4.30859375 26 4.30859375 7.05078125 1.25 7.05078125"></polygon>
            <path
              d="M2.77929688,3.9921875 C3.8515625,3.9921875 4.71289062,3.11328125 4.71289062,2.05859375 C4.71289062,0.986328125 3.8515625,0.125 2.77929688,0.125 C1.72460938,0.125 0.845703125,0.986328125 0.845703125,2.05859375 C0.845703125,3.11328125 1.72460938,3.9921875 2.77929688,3.9921875 L2.77929688,3.9921875 Z"
              id="Path"></path>
          </g>
        </g>
      </g>
    </g>
  </g>
</svg>
