<?xml version="1.0" encoding="UTF-8" standalone="no"?>
<svg width="133px" height="133px" viewBox="0 0 133 133" version="1.1" xmlns="http://www.w3.org/2000/svg"
>
  <!-- Generator: Sketch 39.1 (31720) - http://www.bohemiancoding.com/sketch -->
  <title>articles</title>
  <desc>Created with Sketch.</desc>
  <defs></defs>
  <g id="Page-1" stroke="none" stroke-width="1" fill="none" fill-rule="evenodd">
    <g id="articles">
      <circle id="XMLID_68_" fill="#3498DB" cx="66.2" cy="66.2" r="66.2"></circle>
      <g id="XMLID_33_" transform="translate(38.000000, 32.000000)">
        <path
          d="M51.4,68.9 L6,68.9 C3.2,68.9 0.8,66.6 0.8,63.7 L0.8,6.1 C0.8,3.3 3.1,0.9 6,0.9 L51.4,0.9 C54.2,0.9 56.6,3.2 56.6,6.1 L56.6,63.8 C56.6,66.6 54.2,68.9 51.4,68.9 L51.4,68.9 L51.4,68.9 Z"
          id="XMLID_150_" fill="#F7F7F7"></path>
        <rect id="XMLID_147_" fill="#3498DB" x="6.6" y="7.6" width="44.3" height="8.8"></rect>
        <rect id="XMLID_144_" fill="#BDC2C7" x="6.6" y="19.7" width="44.3" height="3.1"></rect>
        <rect id="XMLID_141_" fill="#BDC2C7" x="6.6" y="26.2" width="44.3" height="3.1"></rect>
        <rect id="XMLID_138_" fill="#BDC2C7" x="6.6" y="46.3" width="44.3" height="3.1"></rect>
        <rect id="XMLID_135_" fill="#BDC2C7" x="6.6" y="52.9" width="44.3" height="3.1"></rect>
        <rect id="XMLID_53_" fill="#BDC2C7" x="6.6" y="59.6" width="33.1" height="3.1"></rect>
        <rect id="XMLID_50_" fill="#BDC2C7" x="28.7" y="39.6" width="22.2" height="3.1"></rect>
        <rect id="XMLID_41_" fill="#BDC2C7" x="28.8" y="32.9" width="22.2" height="3.1"></rect>
        <rect id="XMLID_39_" fill="#3498DB" x="6.6" y="32.9" width="18.7" height="9.8"></rect>
      </g>
    </g>
  </g>
</svg>
