<?xml version="1.0" encoding="UTF-8" standalone="no"?>
<svg width="272px" height="272px" viewBox="0 0 272 272" version="1.1" xmlns="http://www.w3.org/2000/svg"
>
  <!-- Generator: Sketch 39.1 (31720) - http://www.bohemiancoding.com/sketch -->
  <title>ask</title>
  <desc>Created with Sketch.</desc>
  <defs></defs>
  <g id="Page-1" stroke="none" stroke-width="1" fill="none" fill-rule="evenodd">
    <g id="ask">
      <path
        d="M135.842,0.519 C61.057,0.519 0.433,61.15 0.433,135.934 C0.433,210.717 61.057,271.349 135.842,271.349 C210.63,271.349 271.253,210.717 271.253,135.934 C271.253,61.15 210.63,0.519 135.842,0.519 L135.842,0.519 Z M135.842,252.196 C71.633,252.196 19.58,200.141 19.58,135.933 C19.58,71.725 71.633,19.666 135.842,19.666 C200.054,19.666 252.105,71.725 252.105,135.933 C252.104,200.142 200.054,252.196 135.842,252.196 L135.842,252.196 Z"
        id="Shape" fill="#3498DB"></path>
      <path
        d="M240.587,135.934 C240.587,193.786 193.693,240.679 135.842,240.679 C77.992,240.679 31.099,193.785 31.099,135.934 C31.099,78.083 77.992,31.188 135.842,31.188 C193.693,31.188 240.587,78.082 240.587,135.934 L240.587,135.934 Z"
        id="Shape" fill="#3498DB"></path>
      <g id="Group" transform="translate(99.000000, 75.000000)" fill="#FFFFFF">
        <path
          d="M51.922,115.148 C47.995,118.986 43.253,120.909 37.701,120.909 C31.926,120.909 27.176,119.051 23.442,115.317 C19.717,111.584 17.852,106.834 17.852,101.056 C17.852,95.449 19.783,90.694 23.653,86.799 C27.519,82.902 32.205,80.954 37.696,80.954 C43.191,80.954 47.914,82.945 51.872,86.924 C55.823,90.906 57.802,95.646 57.802,101.141 C57.807,106.641 55.844,111.307 51.922,115.148 L51.922,115.148 Z"
          id="Shape"></path>
        <path
          d="M59.995,64.216 C56.637,65.902 54.581,67.359 53.856,68.593 C53.125,69.821 52.77,72.463 52.77,76.502 L21.565,76.502 L21.565,71.199 C21.565,64.188 22.345,59.014 23.92,55.672 C25.487,52.337 28.349,49.746 32.503,47.892 L38.224,45.374 C42.544,43.463 44.701,40.776 44.701,37.296 C44.701,35.273 43.989,33.571 42.597,32.159 C41.198,30.767 39.48,30.055 37.464,30.055 C31.969,30.055 29.217,33.877 29.217,41.5 L0.198,41.5 C0.198,31.29 2.559,22.967 7.268,16.519 C10.747,11.752 15.257,7.967 20.809,5.163 C26.362,2.363 32.109,0.955 38.055,0.955 C48.602,0.955 57.468,4.451 64.677,11.43 C71.886,18.409 75.487,27.062 75.487,37.381 C75.471,50.108 70.313,59.059 59.995,64.216 L59.995,64.216 Z"
          id="Shape"></path>
      </g>
    </g>
  </g>
</svg>
