<?xml version="1.0" encoding="UTF-8" standalone="no"?>
<svg width="133px" height="133px" viewBox="0 0 133 133" version="1.1" xmlns="http://www.w3.org/2000/svg"
>
  <!-- Generator: Sketch 39.1 (31720) - http://www.bohemiancoding.com/sketch -->
  <title>external</title>
  <desc>Created with Sketch.</desc>
  <defs></defs>
  <g id="Page-1" stroke="none" stroke-width="1" fill="none" fill-rule="evenodd">
    <g id="external">
      <path
        d="M66.500532,0 C103.225878,0 133,29.7733483 133,66.501197 C133,103.226652 103.225878,133 66.500532,133 C29.7751864,133 0,103.226652 0,66.501197 C0,29.7733483 29.7751864,0 66.500532,0 L66.500532,0 L66.500532,0 Z"
        id="Shape" fill="#3498DB"></path>
      <path
        d="M41.6347826,41.6347826 L58.2115942,41.6347826 L58.2115942,49.9231884 L49.9231884,49.9231884 L49.9231884,83.0768114 L83.0768114,83.0768114 L83.0768114,74.7884059 L91.3652174,74.7884059 L91.3652174,91.3652174 L41.6347826,91.3652174 L41.6347826,41.6347826 L41.6347826,41.6347826 Z M66.5,41.6347826 L91.3652174,41.6347826 L91.3652174,66.5 L83.0768114,58.2115942 L66.5,74.7884059 L58.2115942,66.5 L74.7884059,49.9231884 L66.5,41.6347826 L66.5,41.6347826 Z"
        id="Shape" fill="#FFFFFF"></path>
    </g>
  </g>
</svg>
