<?xml version="1.0" encoding="UTF-8" standalone="no"?>
<svg width="114px" height="114px" viewBox="0 0 114 114" version="1.1" xmlns="http://www.w3.org/2000/svg"
>
  <!-- Generator: Sketch 39.1 (31720) - http://www.bohemiancoding.com/sketch -->
  <title>news</title>
  <desc>Created with Sketch.</desc>
  <defs></defs>
  <g id="Page-1" stroke="none" stroke-width="1" fill="none" fill-rule="evenodd">
    <g id="news">
      <circle id="Oval" fill="#3498DB" cx="57" cy="57" r="57"></circle>
      <path
        d="M78.8856155,73.8159963 C78.7323185,79.6203624 68.2988633,80.4069097 68.2988633,74.402606 C68.2988633,65.9681847 61.7984877,45.3701442 38.8915613,45.3701442 C34.0575617,45.3701442 33.1628148,35.888365 39.7737906,35.1061045 C49.8128576,33.9179671 79.7136593,42.4496136 78.8856155,73.8159963 L78.8856155,73.8159963 L78.8856155,73.8159963 Z M39.1856377,51.5286024 C46.7830985,50.8082437 58.9696952,55.1715494 62.1234293,69.1239766 C64.8061267,80.9931764 52.1625541,79.9351871 51.8307536,74.402606 C51.182928,63.600655 44.139497,61.8629461 39.3313899,61.9956663 C33.7180449,62.150678 33.4467744,52.0725152 39.1856377,51.5286024 L39.1856377,51.5286024 L39.1856377,51.5286024 Z M40.7506731,66.8790501 C43.925327,66.8790501 46.499139,69.4526906 46.499139,72.6273445 C46.499139,75.8019983 43.925327,78.3756388 40.7506731,78.3756388 C37.5758478,78.3756388 35.0022073,75.8019983 35.0022073,72.6273445 C35.0022073,69.4526906 37.5758478,66.8790501 40.7506731,66.8790501 L40.7506731,66.8790501 L40.7506731,66.8790501 Z"
        id="Shape" fill="#FFFFFF"></path>
    </g>
  </g>
</svg>
