<?xml version="1.0" encoding="UTF-8" standalone="no"?>
<svg width="84px" height="84px" viewBox="0 0 84 84" version="1.1" xmlns="http://www.w3.org/2000/svg"
>
  <!-- Generator: Sketch 39.1 (31720) - http://www.bohemiancoding.com/sketch -->
  <title>professional</title>
  <desc>Created with Sketch.</desc>
  <defs></defs>
  <g id="Page-1" stroke="none" stroke-width="1" fill="none" fill-rule="evenodd">
    <g id="professional" fill="#3498DB">
      <path
        d="M42,84 C65.1959606,84 84,65.1959606 84,42 C84,18.8040394 65.1959606,0 42,0 C18.8040394,0 0,18.8040394 0,42 C0,65.1959606 18.8040394,84 42,84 L42,84 Z M29.2468262,41.8378906 C31.2260742,41.8378905 36.0810547,42.8469238 36.0810547,40.8432617 C36.0810547,38.0463867 33.5285645,36.9221194 28.8933105,36.9221191 C24.2580566,36.9221188 20.9602051,41.3986816 20.9602051,43.3728027 C20.9602051,45.5158693 27.2675781,41.8378907 29.2468262,41.8378906 L29.2468262,41.8378906 Z M25.8933105,25.9777832 C29.4179688,25.977783 33.1132812,26.9370117 33.1132812,25.6113281 C33.1132812,23.8725586 30.5285645,22.9221194 25.8933105,22.9221191 C21.2580566,22.9221188 13.7216797,27.1755371 13.7216797,29.1496582 C13.7216797,31.2927247 20.6245117,25.9777835 25.8933105,25.9777832 L25.8933105,25.9777832 Z M54.7944336,41.8378906 C52.8151855,41.8378905 47.9602051,42.8469238 47.9602051,40.8432617 C47.9602051,38.0463867 50.5126953,36.9221194 55.1479492,36.9221191 C59.7832031,36.9221188 63.0810547,41.3986816 63.0810547,43.3728027 C63.0810547,45.5158693 56.7736816,41.8378907 54.7944336,41.8378906 L54.7944336,41.8378906 Z M57.9416504,25.9777832 C54.4169922,25.977783 50.7216797,26.9370117 50.7216797,25.6113281 C50.7216797,23.8725586 53.3063965,22.9221194 57.9416504,22.9221191 C62.5769043,22.9221188 70.1132812,27.1755371 70.1132812,29.1496582 C70.1132812,31.2927247 63.2104492,25.9777835 57.9416504,25.9777832 L57.9416504,25.9777832 Z M42.833333,67.07251 C52.6557617,67.0725091 53.0517578,58.9377442 53.0517578,58.9377442 C53.0517578,58.3682485 49.8997393,62.6425785 42.833333,62.6425782 C35.7669268,62.6425778 30.9072266,58.3682485 30.9072266,58.9377442 C30.9072266,58.9377442 33.0109043,67.0725114 42.833333,67.07251 L42.833333,67.07251 Z"
        id="imoticon_5"></path>
    </g>
  </g>
</svg>
