<?xml version="1.0" encoding="UTF-8" standalone="no"?>
<svg width="500px" height="500px" viewBox="0 0 500 500" version="1.1" xmlns="http://www.w3.org/2000/svg"
>
  <!-- Generator: Sketch 39.1 (31720) - http://www.bohemiancoding.com/sketch -->
  <title>Group</title>
  <desc>Created with Sketch.</desc>
  <defs></defs>
  <g id="Page-1" stroke="none" stroke-width="1" fill="none" fill-rule="evenodd">
    <g id="radar">
      <g id="satelite">
        <g id="Group">
          <path
            d="M249.996,0 C111.93,0 0,111.92 0,249.996 C0,388.062 111.93,499.992 249.996,499.992 C388.067,499.992 499.997,388.062 499.997,249.996 C499.997,111.92 388.067,0 249.996,0 L249.996,0 Z"
            id="Shape" fill="#3498DB"></path>
          <g id="_x33_2" transform="translate(155.000000, 138.000000)">
            <path
              d="M29.912,173.142 L29.912,131.478 C29.912,129.285 31.682,127.51 33.875,127.51 C36.063,127.51 37.848,129.286 37.848,131.478 L37.848,173.142 C37.848,185.517 47.909,195.592 60.298,195.592 L82.079,195.592 C84.272,195.592 86.052,197.372 86.052,199.565 C86.052,201.743 84.272,203.518 82.079,203.518 L60.298,203.518 C43.538,203.518 29.912,189.887 29.912,173.142 L29.912,173.142 Z"
              id="Shape" fill="#FFFFFF"></path>
            <path
              d="M19.637,223.761 C13.559,223.761 8.64,218.842 8.64,212.778 L8.64,212.021 C8.64,205.957 13.559,201.019 19.637,201.019 L129.767,201.019 C135.841,201.019 140.769,205.957 140.769,212.021 L140.769,212.778 C140.769,218.842 135.841,223.761 129.767,223.761 L19.637,223.761 L19.637,223.761 Z"
              id="Shape" fill="#CFD5E1"></path>
            <path
              d="M110.8,63.177 L146.503,35.047 C145.397,32.918 144.766,30.492 144.766,27.921 C144.766,19.359 151.703,12.408 160.279,12.408 C168.831,12.408 175.783,19.359 175.783,27.921 C175.783,36.493 168.832,43.429 160.279,43.429 C158.086,43.429 156,42.963 154.109,42.148 L124.877,77.249 C116.121,86.014 112.43,96.57 121.195,105.34 L136.602,120.747 C138.149,122.289 138.149,124.802 136.602,126.35 C135.055,127.893 132.542,127.893 130.999,126.35 L115.588,110.944 C103.747,99.083 98.959,75.032 110.8,63.177 L110.8,63.177 Z"
              id="Shape" fill="#CFD5E1"></path>
            <path
              d="M52.488,1.619 C46.483,-4.377 31.425,10.976 31.168,11.229 C-9.614,52.015 -9.604,118.123 31.168,158.905 C71.95,199.692 138.067,199.692 178.854,158.905 C179.111,158.653 194.469,143.596 187.678,136.829 C180.915,130.056 68.214,17.365 52.488,1.619 L52.488,1.619 Z"
              id="Shape" fill="#FFFFFF"></path>
          </g>
        </g>
      </g>
    </g>
  </g>
</svg>
