<?xml version="1.0" ?><!DOCTYPE svg  PUBLIC '-//W3C//DTD SVG 1.1//EN'
  'http://www.w3.org/Graphics/SVG/1.1/DTD/svg11.dtd'>
<svg enable-background="new 0 0 64 64" height="64px" id="hat" version="1.1" viewBox="0 0 64 64" width="64px" xml:space="preserve" xmlns="http://www.w3.org/2000/svg" ><path d="M17.123,42.17c-4.838,1.006-8.03,2.491-8.03,4.632C9.093,50.727,19.37,55,32.046,55  C44.723,55,55,50.727,55,46.802c0-2.155-2.927-3.721-7.824-4.727l-4.199-22.052L22.209,8L11.278,26.582l12.024-6.559l-0.002-0.003  l2.188,4.375L17.123,42.17z" fill="#2F3750"/><path d="M47.176,42.075C52.073,43.081,55,44.646,55,46.802C55,50.727,44.723,55,32.046,55  c-2.076,0-4.087-0.116-6-0.325C35.813,53.607,43,50.084,43,46.802C43,46.467,43,47,43,46C46,45,47,43,47.176,42.075z" fill="#262C42"/><path d="M17.123,42.17c0.172-0.604,8.365-17.774,8.365-17.774l0.949,0.167L20.75,45  C20.063,44.781,16.719,43.594,17.123,42.17z" fill="#424A66"/><path d="M14.229,47.804c0.23-1.437,4.438-2.51,6.584-2.49l-2.946-2.23c-4.516,0.159-7.592,1.037-7.972,3.026  c-0.269,1.411,0.81,3.126,2.891,4.85c1.597,0.924,3.689,1.763,6.142,2.441C15.73,51.398,13.982,49.342,14.229,47.804z" fill="#424A66"/><polygon fill="#262C42" points="23.301,20.021 22.209,17.837 21.688,17.125 11.278,26.582 23.303,20.023 "/><path d="M46.174,36.811l-3.197-16.787L22.209,8l3.279,2.813l12.543,10.781l3.62,17.547  C42.772,38.822,45.254,37.809,46.174,36.811z" fill="#262C42"/><path d="M36.688,47.063c5.239-0.645,9.333-2.306,10.73-4.086l-1.163-6.521c-2.001,1.588-5.631,3.282-10.011,3.99" fill="#674172"/><path d="M43,46c3.367-0.823,3.819-1.704,4.854-3.023l-1.164-6.521c-1.512,1.199-2.33,1.607-5.079,2.585l1.107,5.584  L43,46L43,46z" fill="#4F3058"/><path d="M27.305,47.05c-5.191-0.653-9.243-2.304-10.632-4.073l2.664-5.501c2.072,1.238,5.029,2.39,8.441,2.951" fill="#674172"/><path d="M19.337,37.476l-1.54,3.18c-0.395,0.854-0.646,1.415-0.674,1.515c-0.404,1.424,2.939,2.611,3.627,2.83  l1.68-6.036C21.264,38.508,20.217,38.001,19.337,37.476z" fill="#785083"/><path d="M37,46c0,1.104-0.896,2-2,2h-6c-1.104,0-2-0.896-2-2v-4c0-1.104,0.896-2,2-2h6c1.104,0,2,0.896,2,2V46z" fill="#F4D08C"/><path d="M29,46v-4c0-1.104,0.896-2,2-2h-2c-1.104,0-2,0.896-2,2v4c0,1.104,0.896,2,2,2h2C29.896,48,29,47.104,29,46z  " fill="#FEDA96"/><path d="M35,40h-3c1.104,0,2,0.896,2,2v4c0,1.104-0.896,2-2,2h3c1.104,0,2-0.896,2-2v-4C37,40.896,36.104,40,35,40z" fill="#D7AF75"/><path d="M48.035,41.242l-4.076-21.406c-0.055-0.285-0.23-0.532-0.481-0.678L22.71,7.135  c-0.474-0.275-1.085-0.116-1.363,0.358l-10.93,18.582c-0.228,0.388-0.169,0.879,0.144,1.202s0.802,0.398,1.197,0.183l11.114-6.063  l1.506,3.012l-7.88,16.743c-5.572,1.205-8.404,3.104-8.404,5.649c0,4.9,11.193,9.198,23.953,9.198C44.807,56,56,51.702,56,46.802  C56,44.318,53.318,42.451,48.035,41.242z M17.918,42.83l1.864-3.961c1.871,0.979,4.064,1.754,6.362,2.258  C26.06,41.404,26,41.694,26,42v3.845C21.975,45.168,19.194,43.946,17.918,42.83z M28,46v-4c0-0.552,0.448-1,1-1h6  c0.552,0,1,0.448,1,1v4c0,0.552-0.448,1-1,1h-6C28.448,47,28,46.552,28,46z M37.864,41.156c2.83-0.612,5.489-1.648,7.563-2.922  l0.855,4.496c-1.232,1.154-4.087,2.438-8.282,3.131V42C38,41.705,37.944,41.426,37.864,41.156z M26.383,23.948l-3.279-6.559  c-0.248-0.494-0.847-0.694-1.342-0.447c-0.494,0.247-0.694,0.848-0.447,1.342l0.662,1.323l-8.003,4.365l8.594-14.61L42.08,20.66  l2.943,15.456c-1.79,1.23-4.795,2.606-8.576,3.272C36.017,39.148,35.527,39,35,39h-6c-0.515,0-0.992,0.143-1.416,0.372  c-3.178-0.568-5.523-1.565-6.947-2.318l5.757-12.232C26.523,24.544,26.52,24.223,26.383,23.948z M32.046,54  c-12.735,0-21.953-4.3-21.953-7.198c0-1.267,2.098-2.516,5.683-3.427c0.033,0.074,0.058,0.151,0.11,0.219  c1.583,2.018,5.733,3.685,10.881,4.391C27.317,48.603,28.109,49,29,49h6c0.884,0,1.672-0.392,2.221-1.001  c5.198-0.698,9.388-2.37,10.984-4.405c0.055-0.069,0.081-0.149,0.114-0.228C51.905,44.279,54,45.529,54,46.802  C54,49.7,44.781,54,32.046,54z" fill="#272223"/><rect fill="#272223" height="2" width="4.187" x="29.953" y="43.07"/></svg>
