<?xml version="1.0" encoding="UTF-8" standalone="no"?>
<svg width="422px" height="512px" viewBox="0 0 422 512" version="1.1" xmlns="http://www.w3.org/2000/svg" xmlns:xlink="http://www.w3.org/1999/xlink" xmlns:sketch="http://www.bohemiancoding.com/sketch/ns">
    <!-- Generator: Sketch 3.4 (15588) - http://www.bohemiancoding.com/sketch -->
    <title>logo</title>
    <desc>Created with Sketch.</desc>
    <defs></defs>
    <g id="Page-1" stroke="none" stroke-width="1" fill="none" fill-rule="evenodd" sketch:type="MSPage">
        <g id="logo" sketch:type="MSLayerGroup">
            <g id="Group" sketch:type="MSShapeGroup">
                <path d="M369,48.7 L297.3,48.7 L297.3,6 C297.3,1 291.5,-1.8 287.5,1.3 L229,48.6 L146,48.6 C117.1,48.6 93.5,72.2 93.5,101.1 L93.5,111.6 L296.1,111.6 C329.7,111.6 357.2,135.2 357.2,164.1 L357.2,376.7 L369,376.7 C397.9,376.7 421.5,353.1 421.5,324.2 L421.5,101.2 C421.5,72.3 397.9,48.7 369,48.7 L369,48.7 Z" id="Shape" fill="#4885ED"></path>
                <path d="M276,132.8 L53,132.8 C24.1,132.8 0.5,156.4 0.5,185.3 L0.5,408.4 C0.5,437.3 24.1,460.9 53,460.9 L127.6,460.9 L127.6,506 C127.6,511 133.4,513.8 137.4,510.7 L199,460.9 L276,460.9 C304.9,460.9 328.5,437.3 328.5,408.4 L328.5,185.3 C328.5,156.4 304.9,132.8 276,132.8 L276,132.8 Z M279.9,368 C279.9,390.4 261.6,408.7 239.2,408.7 L89.8,408.7 C67.4,408.7 49.1,390.4 49.1,368 L49.1,229.1 C49.1,206.7 67.4,188.4 89.8,188.4 L239.2,188.4 C261.6,188.4 279.9,206.7 279.9,229.1 L279.9,368 L279.9,368 Z" id="Shape" fill="#DD0031"></path>
                <g transform="translate(111.000000, 214.000000)" id="Shape">
                    <path d="M71,167 C66.8,170.8 61,172.7 53.7,172.7 C46.2,172.7 40.3,170.8 36,167 C31.7,163.2 29.6,157.8 29.6,150.8 C29.6,143.8 31.6,138.4 35.7,134.6 C39.8,130.8 45.8,128.9 53.7,128.9 C61.3,128.9 67.2,130.8 71.2,134.7 C75.3,138.5 77.3,143.9 77.3,150.9 C77.3,157.8 75.2,163.2 71,167 L71,167 Z" fill="#F4C20D"></path>
                    <path d="M108.2,66.1 C103.9,72.8 97,79.2 87.6,85.2 C79.6,90.4 74.6,94.2 72.6,96.6 C70.6,99 69.6,101.8 69.6,105.1 L69.6,110.9 L34.5,110.9 L34.5,101.1 C34.5,93.6 36,87.3 39.1,82.2 C42.1,77.1 47.5,72.1 55.3,67.2 C61.5,63.3 65.9,59.8 68.6,56.7 C71.3,53.6 72.7,50 72.7,46 C72.7,42.8 71.3,40.3 68.4,38.4 C65.5,36.5 61.7,35.6 57.1,35.6 C45.6,35.6 32.2,39.7 16.8,47.8 L0.9,16.7 C19.9,5.9 39.6,0.5 60.3,0.5 C77.3,0.5 90.6,4.2 100.3,11.7 C110,19.2 114.8,29.3 114.8,42.2 C114.7,51.4 112.5,59.4 108.2,66.1 L108.2,66.1 Z" fill="#3CBA54"></path>
                </g>
            </g>
        </g>
    </g>
</svg>