<?xml version="1.0" encoding="UTF-8" standalone="no"?>
<svg width="320px" height="288px" viewBox="0 0 320 288" version="1.1" xmlns="http://www.w3.org/2000/svg"
>
  <!-- Generator: Sketch 39.1 (31720) - http://www.bohemiancoding.com/sketch -->
  <title>level-up</title>
  <desc>Created with Sketch.</desc>
  <defs></defs>
  <g id="Page-1" stroke="none" stroke-width="1" fill="none" fill-rule="evenodd">
    <g id="level-up" fill="#3498DB">
      <path
        d="M83.725625,287.1075 L123.256875,287.1075 L123.256875,146.705625 L83.725625,186.265 L83.725625,287.1075 L83.725625,287.1075 Z M29.37375,240.621875 L29.37375,287.1075 L68.91125,287.1075 L68.91125,201.07625 L41.608125,228.38625 L29.37375,240.621875 L29.37375,240.621875 Z M138.07,287.081875 L177.60625,287.081875 L177.60625,178.55375 L138.07,139.01875 L138.07,287.081875 L138.07,287.081875 L138.07,287.081875 Z M192.421875,183.166875 L192.421875,287.1075 L231.95625,287.1075 L231.95625,143.619375 L200.963125,174.635 L192.421875,183.166875 L192.421875,183.166875 Z M246.794375,287.1075 L286.304375,287.1075 L286.304375,89.270625 L246.794375,128.8075 L246.794375,287.1075 L246.794375,287.1075 Z M231.06875,8.885625 L257.285,35.1225 L257.4375,35.27625 L187.34,105.39875 L134.504375,52.57875 L0,187.1 L27.959375,215.038125 L134.50625,108.48375 L187.341875,161.30375 L285.395,63.23375 L311.48375,89.32125 L320,0.391875 L231.06875,8.885625 L231.06875,8.885625 Z"
        id="Shape"></path>
    </g>
  </g>
</svg>
