<?xml version="1.0" encoding="UTF-8" standalone="no"?>
<svg width="271px" height="271px" viewBox="0 0 271 271" version="1.1" xmlns="http://www.w3.org/2000/svg"
>
  <!-- Generator: Sketch 39.1 (31720) - http://www.bohemiancoding.com/sketch -->
  <title>about</title>
  <desc>Created with Sketch.</desc>
  <defs></defs>
  <g id="Page-1" stroke="none" stroke-width="1" fill="none" fill-rule="evenodd">
    <g id="about">
      <g id="Layer_1">
        <g id="Group">
          <path
            d="M135.123,0.8 C60.566,0.8 0.125,61.24 0.125,135.802 C0.125,210.356 60.565,270.8 135.123,270.8 C209.682,270.8 270.125,210.357 270.125,135.802 C270.125,61.241 209.682,0.8 135.123,0.8 L135.123,0.8 Z M135.123,251.714 C71.11,251.714 19.212,199.813 19.212,135.802 C19.212,71.784 71.11,19.891 135.123,19.891 C199.142,19.891 251.035,71.785 251.035,135.802 C251.035,199.813 199.142,251.714 135.123,251.714 L135.123,251.714 Z"
            id="Shape" fill="#3498DB"></path>
          <circle id="Oval" fill="#3498DB" cx="135.125" cy="135.802" r="104.431"></circle>
          <g transform="translate(109.000000, 75.000000)" id="Shape" fill="#FFFFFF">
            <path
              d="M14.156,4.922 C17.176,2.131 20.794,0.739 24.985,0.739 C29.18,0.739 32.77,2.131 35.778,4.922 C38.774,7.726 40.274,11.083 40.274,15.013 C40.274,18.944 38.757,22.292 35.734,25.064 C32.713,27.832 29.132,29.215 24.985,29.215 C20.802,29.215 17.184,27.836 14.156,25.064 C11.132,22.293 9.62,18.944 9.62,15.013 C9.62,11.083 11.132,7.726 14.156,4.922 L14.156,4.922 Z"></path>
            <path
              d="M51.604,120.861 L2.558,120.861 L2.558,115.198 C3.905,115.098 5.221,114.962 6.52,114.809 C7.807,114.649 8.922,114.396 9.849,114.031 C11.514,113.418 12.673,112.515 13.354,111.352 C14.02,110.189 14.365,108.653 14.365,106.736 L14.365,61.564 C14.365,59.755 13.948,58.171 13.126,56.799 C12.296,55.419 11.257,54.316 10.018,53.494 C9.092,52.876 7.672,52.279 5.791,51.705 C3.906,51.14 2.182,50.783 0.633,50.622 L0.633,44.963 L38.662,42.945 L39.825,44.104 L39.825,105.724 C39.825,107.537 40.218,109.069 40.983,110.34 C41.765,111.608 42.873,112.546 44.324,113.175 C45.359,113.641 46.507,114.062 47.737,114.414 C48.985,114.779 50.272,115.032 51.62,115.192 L51.62,120.859 L51.604,120.859 L51.604,120.861 L51.604,120.861 Z"></path>
          </g>
        </g>
      </g>
    </g>
  </g>
</svg>
