<?xml version="1.0" encoding="UTF-8" standalone="no"?>
<svg width="500px" height="500px" viewBox="0 0 500 500" version="1.1" xmlns="http://www.w3.org/2000/svg"
>
  <!-- Generator: Sketch 39.1 (31720) - http://www.bohemiancoding.com/sketch -->
  <title>books</title>
  <desc>Created with Sketch.</desc>
  <defs></defs>
  <g id="Page-1" stroke="none" stroke-width="1" fill="none" fill-rule="evenodd">
    <g id="books">
      <path
        d="M249.996,0 C111.93,0 0,111.92 0,249.996 C0,388.062 111.93,499.992 249.996,499.992 C388.067,499.992 499.997,388.062 499.997,249.996 C499.997,111.92 388.067,0 249.996,0 L249.996,0 Z"
        id="Shape" fill="#3498DB"></path>
      <path
        d="M118,133.141331 L118,366.807832 C118,373.618454 123.546431,379.139543 130.185336,379.139543 L167.30844,379.139543 C174.03822,379.139543 179.493776,373.733583 179.493776,366.807832 L179.493776,133.141331 C179.493776,126.330708 173.947345,120.80962 167.30844,120.80962 L130.185336,120.80962 C123.455556,120.80962 118,126.215579 118,133.141331 L118,133.141331 Z M191.792531,133.141331 L191.792531,366.807832 C191.792531,373.618454 197.338962,379.139543 203.977867,379.139543 L241.100971,379.139543 C247.830751,379.139543 253.286307,373.733583 253.286307,366.807832 L253.286307,133.141331 C253.286307,126.330708 247.739876,120.80962 241.100971,120.80962 L203.977867,120.80962 C197.248087,120.80962 191.792531,126.215579 191.792531,133.141331 L191.792531,133.141331 Z M260.998143,145.08193 L321.462353,370.786445 C323.224691,377.364989 330.010788,381.262129 336.423469,379.543485 L372.281646,369.93323 C378.782104,368.191053 382.652903,361.556981 380.860778,354.867232 L320.396568,129.162718 C318.63423,122.584174 311.848134,118.687033 305.435452,120.405678 L269.577275,130.015932 C263.076817,131.758109 259.206018,138.392182 260.998143,145.08193 L260.998143,145.08193 Z"
        id="editor-books-library-collection-glyph" fill="#FFFFFF"></path>
    </g>
  </g>
</svg>
