<?xml version="1.0" encoding="UTF-8" standalone="no"?>
<svg width="500px" height="500px" viewBox="0 0 500 500" version="1.1" xmlns="http://www.w3.org/2000/svg"
>
  <!-- Generator: Sketch 39.1 (31720) - http://www.bohemiancoding.com/sketch -->
  <title>handshake</title>
  <desc>Created with Sketch.</desc>
  <defs></defs>
  <g id="Page-1" stroke="none" stroke-width="1" fill="none" fill-rule="evenodd">
    <g id="handshake">
      <path
        d="M249.996,0 C111.93,0 0,111.92 0,249.996 C0,388.062 111.93,499.992 249.996,499.992 C388.067,499.992 499.997,388.062 499.997,249.996 C499.997,111.92 388.067,0 249.996,0 L249.996,0 Z"
        id="Shape" fill="#3498DB"></path>
      <path
        d="M250.15625,165 C245.21825,165 187.5,214.96925 187.5,219.90625 C187.5,224.84525 195.84525,236.5625 200.78125,236.5625 C205.71925,236.5625 245.21925,209.71875 250.15625,209.71875 C255.09425,209.71875 314.303,281.3125 319.25,281.3125 L339.625,281.3125 L339.625,210.03125 C339.625,210.03125 335.59025,209.71875 330.65625,209.71875 C325.71825,209.71875 259.10325,165 250.15625,165 L250.15625,165 Z M107,182.875 L107,326.0625 L151.71875,326.0625 L151.71875,182.875 L107,182.875 L107,182.875 Z M215.59375,182.875 C205.72475,182.875 171.15675,209.71875 166.21875,209.71875 L160.65625,209.71875 L160.65625,281.3125 L166.21875,281.3125 C171.15675,281.3125 181.03125,293.96875 181.03125,293.96875 L215.59375,328.5 C215.59375,328.5 222.373,335 232.25,335 C242.125,335 245.21875,328.5 245.21875,328.5 C245.21875,328.5 249.22075,335 259.09375,335 C271.39575,335 274.8125,323.59375 274.8125,323.59375 C274.8125,323.59375 277.5515,326.0625 285.9375,326.0625 C299.3595,326.0625 299.5,313.71875 299.5,313.71875 C299.5,313.71875 304.428,317.09375 309.375,317.09375 C317.238,317.09375 321.71875,308.78275 321.71875,303.84375 C321.71875,294.74575 317.7135,287.7035 315.0625,284.0625 C310.7885,280.9055 302.57275,272.14375 281.34375,248.46875 C274.03475,240.31775 266.46125,231.89225 260.40625,225.40625 C253.84125,218.38525 250.85725,215.62125 249.53125,214.53125 C245.60925,216.19525 235.02925,222.58575 227.78125,226.96875 C209.46125,238.03675 204.03325,241.03125 200.78125,241.03125 C198.14825,241.03125 193.90675,239.6265 188.71875,232.8125 C187.38475,231.0565 183.03125,224.92425 183.03125,219.90625 C183.03125,217.71525 183.76075,215.5825 193.46875,206.0625 C198.77675,200.8595 206.07825,194.14875 214.03125,187.21875 C215.35825,186.06175 216.691,184.9365 218,183.8125 C216.968,183.2115 216.15575,182.875 215.59375,182.875 L215.59375,182.875 Z M348.5625,182.875 L348.5625,326.0625 L393.3125,326.0625 L393.3125,182.875 L348.5625,182.875 L348.5625,182.875 Z M133.8125,299.21875 C138.7555,299.21875 142.78125,303.21325 142.78125,308.15625 C142.78125,313.09225 138.7555,317.09375 133.8125,317.09375 C128.8715,317.09375 124.875,313.09225 124.875,308.15625 C124.875,303.21325 128.8715,299.21875 133.8125,299.21875 L133.8125,299.21875 Z M366.46875,299.21875 C371.40975,299.21875 375.40625,303.21325 375.40625,308.15625 C375.40725,313.09225 371.41075,317.09375 366.46875,317.09375 C361.52975,317.09375 357.5,313.09225 357.5,308.15625 C357.5,303.21325 361.52975,299.21875 366.46875,299.21875 L366.46875,299.21875 Z"
        id="path9" fill="#FFFFFF"></path>
    </g>
  </g>
</svg>
