<?xml version="1.0" encoding="UTF-8" standalone="no"?>
<svg width="268px" height="268px" viewBox="0 0 268 268" version="1.1" xmlns="http://www.w3.org/2000/svg"
>
  <!-- Generator: Sketch 39.1 (31720) - http://www.bohemiancoding.com/sketch -->
  <title>showcase</title>
  <desc>Created with Sketch.</desc>
  <defs></defs>
  <g id="Page-1" stroke="none" stroke-width="1" fill="none" fill-rule="evenodd">
    <g id="showcase">
      <path
        d="M134,0 C59.9954399,0 0,59.9900798 0,134 C0,208.00456 59.9954399,268 134,268 C208.00724,268 268.00268,208.00456 268.00268,134 C268.00268,59.9900798 208.00724,0 134,0 L134,0 Z"
        id="Shape" fill="#3498DB"></path>
      <path
        d="M129.505857,56 C119.008393,56 110.467781,64.52846 110.467781,74.9875769 C110.467781,84.151574 116.986661,91.8280763 126.004602,93.503831 C125.81548,99.3546171 125.657843,106.826953 125.550112,114.006374 C126.862005,113.862736 128.191701,113.787546 129.539523,113.787546 C130.865745,113.787546 132.171255,113.860345 133.461602,114.006374 C133.351447,106.826953 133.213067,99.364189 133.023945,93.503831 C142.039516,91.8232877 148.543933,84.151574 148.543933,74.9875769 C148.543933,64.52846 140.003267,56 129.505857,56 L129.505857,56 Z M209.832734,82.6465729 C202.593484,82.6465729 196.719859,88.5080567 196.719859,95.7257815 C196.719859,97.1310184 196.947764,98.4824652 197.359512,99.7488585 L161.724139,120.840555 C161.724139,120.840555 158.582517,122.676247 154.603798,125.015129 C156.384859,127.210367 157.772838,129.641289 158.761538,132.202802 L165.949212,128.011395 C182.936548,118.074159 194.062218,111.251732 201.988575,106.162216 C204.179014,107.799672 206.888178,108.771324 209.832734,108.771324 C217.071983,108.771324 222.928775,102.938718 222.928775,95.7257815 C222.928775,88.5080567 217.071983,82.6465729 209.832734,82.6465729 L209.832734,82.6465729 Z M61.0293829,87.4103001 C60.3688414,87.4042672 59.699256,87.4641117 59.0262609,87.5954626 C56.4144375,88.1029777 54.150041,89.6012779 52.663408,91.8037022 C51.5454303,93.4579107 50.9632792,95.3546269 50.9632792,97.3080795 C50.9632792,97.9472579 51.0335737,98.6022943 51.1652747,99.2438697 C51.6766573,101.836851 53.1652403,104.079076 55.3566813,105.556229 L55.3734874,105.556229 C57.5782655,107.029557 60.2210454,107.582567 62.8304825,107.071195 C64.2045905,106.810255 65.5270955,106.119387 66.8030606,105.152238 C67.4374881,105.645387 79.4446123,114.932187 79.4446123,114.932187 L99.1728393,130.132348 L99.1896454,130.149154 C100.614064,127.791129 102.382656,125.617135 104.424695,123.668465 L104.306865,123.567467 C86.83587,110.015379 76.3307035,103.121591 70.5062845,99.6814997 C70.7241165,98.8508027 70.8934425,98.062293 70.8934425,97.3417185 L70.70828,95.4227613 C69.7887265,90.7285475 65.6531029,87.4526653 61.029329,87.4102732 L61.0293829,87.4103001 Z M127.805728,120.689059 C126.91064,120.712167 126.005916,120.772178 125.095622,120.874221 C110.535679,122.511672 99.8668689,133.835804 101.260153,146.174157 C102.655807,158.507728 115.58799,167.186349 130.145509,165.548892 C144.705453,163.918622 155.376633,152.58731 153.980978,140.248956 C152.6725,128.683987 141.23204,120.34209 127.805728,120.689059 L127.805728,120.689059 Z M225.167559,128.348055 C217.631457,128.348055 211.303288,133.450773 209.445576,140.38362 C194.548111,140.149014 177.614129,139.981724 160.444834,139.912297 C160.511843,140.948873 160.509769,141.99229 160.46164,143.043227 C160.361127,144.790806 160.079707,146.511097 159.636825,148.177279 C177.000035,148.110249 194.135179,147.935779 209.193054,147.705957 C210.655771,155.170256 217.265172,160.801998 225.184365,160.801998 C234.178389,160.801998 241.461835,153.540325 241.461835,144.575026 C241.461835,135.609728 234.178389,128.348055 225.184365,128.348055 L225.167559,128.348055 Z M40.0891861,129.189702 C32.313706,129.189702 26,135.474423 26,143.22839 C26,150.975176 32.313706,157.250244 40.0891861,157.250244 C46.3038604,157.250244 51.5583849,153.228546 53.4208911,147.655458 C65.8095121,147.861337 80.2291628,148.014191 95.3181188,148.109948 C95.0739467,146.386312 95.022963,144.636837 95.1666222,142.874898 C95.2167171,141.89578 95.316449,140.934809 95.4864484,139.979629 C80.5195515,140.072994 66.2017874,140.230631 53.875381,140.434119 C52.5754996,134.018364 46.9023596,129.189702 40.0891861,129.189702 L40.0891861,129.189702 Z M99.0550356,158.058226 C92.5698489,162.039342 86.9431431,165.613337 82.2725762,168.713488 C79.8020366,166.365035 76.6425307,165.099794 73.3006094,165.229066 C69.9754403,165.360735 66.8938778,166.7718 64.6316359,169.201644 C62.3765043,171.633885 61.1886361,174.805112 61.3155432,178.123112 C61.5860555,184.967382 67.391864,190.31862 74.2600881,190.057679 C80.9798589,189.799136 86.2451543,184.347633 86.2451543,177.651789 L86.2451543,177.163633 C86.2187603,176.407147 86.0325473,175.579811 85.8074974,174.706022 C86.1666185,174.497751 95.3486606,169.173559 104.273253,164.00026 C103.46651,163.308412 102.69249,162.575567 101.967137,161.795143 L101.950331,161.795143 C100.858694,160.619723 99.902474,159.362917 99.0550625,158.058226 L99.0550356,158.058226 Z M153.273994,159.842519 C151.552723,161.788792 149.565734,163.545447 147.382459,165.077569 L153.105664,168.460994 C153.105664,168.465842 155.882591,170.060222 156.842581,170.615613 C156.646242,171.467856 156.489089,172.285394 156.489089,173.022726 C156.489089,174.049725 156.641905,175.085735 156.926746,176.103157 C158.600131,182.011396 164.662285,185.493427 170.443611,183.863151 C173.184717,183.092304 175.466189,181.278794 176.873802,178.762765 C177.814616,177.10137 178.304603,175.214463 178.304603,173.308886 C178.304603,172.260341 178.156635,171.214607 177.866946,170.194789 C176.195985,164.291338 170.138706,160.806921 164.366914,162.434795 C163.148369,162.78192 161.959423,163.441589 160.815159,164.336919 C160.377072,164.085556 159.28336,163.478438 159.28336,163.478438 C158.100744,162.858409 156.718852,162.13352 153.273994,159.842519 L153.273994,159.842519 Z"
        id="rect3812" fill="#FFFFFF"></path>
    </g>
  </g>
</svg>
