<svg viewBox="0 0 1024 1404.416" xmlns="http://www.w3.org/2000/svg">
  <path
    d="M960 440.384h-256v-128c0-35.312-28.656-64-64-64h-256c-35.344 0-64 28.688-64 64v128h-128v-64h-128v64c-35.344 0-64 28.688-64 64v704c0 35.376 28.656 64 64 64h896c35.344 0 64-28.624 64-64v-704c0-35.312-28.656-64-64-64z m-512-64h128v64h-128v-64z m448 768h-768v-576h768v576z m-384-128c106.032 0 192-85.938 192-192s-85.968-192-192-192-192 85.938-192 192 85.968 192 192 192z m0-256c35.344 0 64 28.624 64 64s-28.656 64-64 64-64-28.624-64-64 28.656-64 64-64z"/>
</svg>
