<?xml version="1.0" encoding="UTF-8" standalone="no"?>
<svg width="229px" height="242px" viewBox="0 0 229 242" version="1.1" xmlns="http://www.w3.org/2000/svg" xmlns:xlink="http://www.w3.org/1999/xlink">
    <!-- Generator: Sketch 39.1 (31720) - http://www.bohemiancoding.com/sketch -->
    <title>Group</title>
    <desc>Created with Sketch.</desc>
    <defs>
        <rect id="path-1" x="0" y="0.366" width="130.311" height="206.901"></rect>
        <rect id="path-3" x="0.311" y="0.311" width="98.86" height="188.554"></rect>
    </defs>
    <g id="Page-1" stroke="none" stroke-width="1" fill="none" fill-rule="evenodd">
        <g id="logo" transform="translate(-16.000000, 0.000000)">
            <g id="Group">
                <g>
                    <polygon id="Shape" fill="#3D4950" points="130.496 0.046 16.728 40.085 34.7 189.148 130.617 241.861 227.027 188.433 244.998 39.377"></polygon>
                    <polygon id="Shape" fill="#A61A17" points="233.653 47.993 130.224 12.724 130.224 229.267 216.901 181.302"></polygon>
                    <polygon id="Shape" fill="#D71516" points="29.484 48.629 44.894 181.938 130.224 229.267 130.224 12.721"></polygon>
                    <g id="Clipped" transform="translate(0.000000, 22.000000)">
                        <mask id="mask-2" fill="white">
                            <use xlink:href="#path-1"></use>
                        </mask>
                        <g id="SVGID_1_"></g>
                        <g id="Group" mask="url(#mask-2)" fill="#FFFFFF">
                            <g transform="translate(73.000000, 30.000000)" id="Shape">
                                <polygon points="47.417 60.122 6.819 44.987 0.673 19.068 32.881 25.512"></polygon>
                                <polygon points="67.199 60.122 107.802 44.987 113.955 19.068 81.729 25.512"></polygon>
                                <polygon points="34.083 23.115 13.55 19.068 27.485 0.637 45.018 0.637"></polygon>
                                <polygon points="80.232 23.115 100.76 19.068 86.824 0.637 69.298 0.637"></polygon>
                                <polygon points="77.891 27.886 63.376 65.743 67.719 94.476 46.146 94.476 51.037 65.702 36.478 27.886 45.92 0.637 68.24 0.637"></polygon>
                                <polygon points="16.776 63.938 31.007 71.586 31.007 101.778 7.629 81.776 7.629 47.982 16.776 51.732"></polygon>
                                <polygon points="97.388 63.938 83.152 71.586 83.152 101.778 106.536 81.776 106.536 47.982 97.388 51.732"></polygon>
                                <polygon points="72.519 60.646 67.199 63.421 67.199 68.632 70.529 96.325 63.394 103.577 57.189 103.635 50.979 103.577 43.838 96.325 47.174 68.632 47.174 63.421 41.866 60.646 34.505 73.011 34.505 117.905 42.104 110.937 57.189 110.771 72.275 110.937 79.856 117.905 79.856 73.011"></polygon>
                                <polygon points="67.048 133.991 47.186 133.991 40.23 126.84 47.186 119.687 67.048 119.687 74.23 126.84"></polygon>
                                <polygon points="31.007 119.687 18.043 105.299 18.043 95.48 31.007 103.953"></polygon>
                                <polygon points="82.788 119.687 95.741 105.299 95.741 95.48 82.788 103.953"></polygon>
                                <polygon points="70.639 117.905 43.728 117.905 38.391 125.214 34.505 123.189 43.601 114.065 70.865 114.065 79.856 123.189 76.04 125.214"></polygon>
                            </g>
                        </g>
                    </g>
                    <g id="Clipped" transform="translate(130.000000, 31.000000)">
                        <mask id="mask-4" fill="white">
                            <use xlink:href="#path-3"></use>
                        </mask>
                        <g id="SVGID_3_"></g>
                        <g id="Group" mask="url(#mask-4)" fill="#DADADA">
                            <g transform="translate(-57.000000, 21.000000)" id="Shape">
                                <polygon points="47.417 60.036 6.819 44.903 0.673 18.984 32.881 25.428"></polygon>
                                <polygon points="67.199 60.036 107.802 44.903 113.955 18.984 81.729 25.428"></polygon>
                                <polygon points="34.083 23.031 13.55 18.984 27.485 0.553 45.018 0.553"></polygon>
                                <polygon points="80.238 23.031 100.76 18.984 86.824 0.553 69.298 0.553"></polygon>
                                <polygon points="77.891 27.799 63.376 65.659 67.719 94.394 46.146 94.394 51.037 65.618 36.478 27.799 45.914 0.553 68.245 0.553"></polygon>
                                <polygon points="16.776 63.854 31.007 71.502 31.007 101.691 7.641 81.69 7.641 47.898 16.776 51.645"></polygon>
                                <polygon points="97.388 63.854 83.152 71.502 83.152 101.691 106.536 81.69 106.536 47.898 97.388 51.645"></polygon>
                                <polygon points="72.519 60.562 67.199 63.334 67.199 68.548 70.529 96.245 63.394 103.495 57.189 103.542 50.974 103.495 43.838 96.245 47.169 68.548 47.169 63.334 41.86 60.562 34.505 72.927 34.505 117.819 42.104 110.851 57.189 110.689 72.27 110.851 79.85 117.819 79.85 72.927"></polygon>
                                <polygon points="67.048 133.911 47.186 133.911 40.23 126.753 47.186 119.6 67.048 119.6 74.224 126.753"></polygon>
                                <polygon points="31.007 119.6 18.043 105.218 18.043 95.4 31.007 103.865"></polygon>
                                <polygon points="82.788 119.6 95.741 105.218 95.741 95.4 82.788 103.865"></polygon>
                                <polygon points="70.639 117.819 43.728 117.819 38.391 125.128 34.505 123.11 43.601 113.984 70.865 113.984 79.85 123.11 76.04 125.128"></polygon>
                            </g>
                        </g>
                    </g>
                </g>
            </g>
        </g>
    </g>
</svg>